<svg width="29" height="28" viewBox="0 0 29 28" fill="none" xmlns="http://www.w3.org/2000/svg">
<path d="M13.1825 25.6663V17.0169L7.0663 23.1331C6.57814 23.6213 5.78688 23.6213 5.29872 23.1331C4.81073 22.645 4.81062 21.8537 5.29872 21.3656L11.414 15.2503H2.76552C2.07527 15.2503 1.51569 14.6905 1.51552 14.0003C1.51552 13.31 2.07516 12.7503 2.76552 12.7503H11.4149L5.29872 6.63412L5.21278 6.53939C4.81239 6.04842 4.84109 5.32417 5.29872 4.86654C5.75635 4.40891 6.48061 4.3802 6.97157 4.7806L7.0663 4.86654L13.1825 10.9827V2.33333C13.1825 1.64298 13.7422 1.08333 14.4325 1.08333C15.1227 1.08351 15.6825 1.64309 15.6825 2.33333V10.9818L21.7977 4.86654C22.2858 4.37844 23.0772 4.37854 23.5653 4.86654C24.0535 5.35469 24.0535 6.14596 23.5653 6.63412L17.4491 12.7503H26.0985L26.2265 12.7562C26.8569 12.8201 27.3485 13.353 27.3485 14.0003C27.3484 14.6475 26.8568 15.1796 26.2265 15.2435L26.0985 15.2503H17.4501L23.5653 21.3656L23.6513 21.4603C24.052 21.9513 24.0231 22.6754 23.5653 23.1331C23.1076 23.5909 22.3834 23.6198 21.8925 23.2191L21.7977 23.1331L15.6825 17.0179V25.6663C15.6825 26.3566 15.1227 26.9162 14.4325 26.9163C13.7422 26.9163 13.1825 26.3567 13.1825 25.6663Z" fill="#344641"/>
</svg>
